{
  "accessors": [
    {
      "bufferView": 2,
      "componentType": 5126,
      "count": 58200,
      "max": [
        4.326469898223877,
        7.525740146636963,
        3.0069799423217773
      ],
      "min": [
        -5.22298002243042,
        -4.642930030822754,
        -10.510109901428223
      ],
      "type": "VEC3"
    },
    {
      "bufferView": 2,
      "byteOffset": 698400,
      "componentType": 5126,
      "count": 58200,
      "max": [
        0.999981701374054,
        0.9999733567237854,
        0.9998810887336731
      ],
      "min": [
        -0.9999729990959167,
        -0.9999294281005859,
        -0.9999336004257202
      ],
      "type": "VEC3"
    },
    {
      "bufferView": 3,
      "componentType": 5126,
      "count": 58200,
      "max": [
        0.9999903440475464,
        0.9999975562095642,
        0.999944269657135,
        1.0
      ],
      "min": [
        -0.9999974966049194,
        -0.9999986886978149,
        -0.999854326248169,
        -1.0
      ],
      "type": "VEC4"
    },
    {
      "bufferView": 1,
      "componentType": 5126,
      "count": 58200,
      "max": [
        0.9989299774169922,
        0.9987800121307373
      ],
      "min": [
        0.0,
        0.0
      ],
      "type": "VEC2"
    },
    {
      "bufferView": 1,
      "byteOffset": 465600,
      "componentType": 5126,
      "count": 58200,
      "max": [
        0.9989299774169922,
        0.9987800121307373
      ],
      "min": [
        0.0,
        0.0
      ],
      "type": "VEC2"
    },
    {
      "bufferView": 1,
      "byteOffset": 931200,
      "componentType": 5126,
      "count": 58200,
      "max": [
        0.9989299774169922,
        0.9987800121307373
      ],
      "min": [
        0.0,
        0.0
      ],
      "type": "VEC2"
    },
    {
      "bufferView": 1,
      "byteOffset": 1396800,
      "componentType": 5126,
      "count": 58200,
      "max": [
        0.9989299774169922,
        0.9987800121307373
      ],
      "min": [
        0.0,
        0.0
      ],
      "type": "VEC2"
    },
    {
      "bufferView": 1,
      "byteOffset": 1862400,
      "componentType": 5126,
      "count": 58200,
      "max": [
        0.9989299774169922,
        0.9987800121307373
      ],
      "min": [
        0.0,
        0.0
      ],
      "type": "VEC2"
    },
    {
      "bufferView": 0,
      "componentType": 5125,
      "count": 330480,
      "type": "SCALAR"
    }
  ],
  "asset": {
    "extras": {
      "author": "endike (https://sketchfab.com/endike)",
      "license": "CC-BY-4.0 (http://creativecommons.org/licenses/by/4.0/)",
      "source": "https://sketchfab.com/3d-models/monster-sculpt-free-8d0cb17aefa34cffb4f4418f631d55e2",
      "title": "monster sculpt free"
    },
    "generator": "Sketchfab-13.42.0",
    "version": "2.0"
  },
  "bufferViews": [
    {
      "buffer": 0,
      "byteLength": 1321920,
      "name": "floatBufferViews",
      "target": 34963
    },
    {
      "buffer": 0,
      "byteLength": 2328000,
      "byteOffset": 1321920,
      "byteStride": 8,
      "name": "floatBufferViews",
      "target": 34962
    },
    {
      "buffer": 0,
      "byteLength": 1396800,
      "byteOffset": 3649920,
      "byteStride": 12,
      "name": "floatBufferViews",
      "target": 34962
    },
    {
      "buffer": 0,
      "byteLength": 931200,
      "byteOffset": 5046720,
      "byteStride": 16,
      "name": "floatBufferViews",
      "target": 34962
    }
  ],
  "buffers": [
    {
      "byteLength": 5977920,
      "uri": "scene.bin"
    }
  ],
  "extensionsUsed": [
    "KHR_materials_clearcoat"
  ],
  "images": [
    {
      "uri": "textures/sark_baseColor.png"
    },
    {
      "uri": "textures/sark_metallicRoughness.png"
    },
    {
      "uri": "textures/sark_normal.png"
    },
    {
      "uri": "textures/sark_clearcoat.png"
    },
    {
      "uri": "textures/sark_clearcoat_normal.png"
    }
  ],
  "materials": [
    {
      "doubleSided": true,
      "extensions": {
        "KHR_materials_clearcoat": {
          "clearcoatFactor": 0.810373079425302,
          "clearcoatNormalTexture": {
            "index": 4
          },
          "clearcoatRoughnessFactor": 0.056431607172172264,
          "clearcoatTexture": {
            "index": 3
          }
        }
      },
      "name": "sark",
      "normalTexture": {
        "index": 2,
        "scale": 0.53
      },
      "pbrMetallicRoughness": {
        "baseColorTexture": {
          "index": 0
        },
        "metallicRoughnessTexture": {
          "index": 1
        },
        "roughnessFactor": 0.6826894429953365
      }
    }
  ],
  "meshes": [
    {
      "name": "Plane.007_0",
      "primitives": [
        {
          "attributes": {
            "NORMAL": 1,
            "POSITION": 0,
            "TANGENT": 2,
            "TEXCOORD_0": 3,
            "TEXCOORD_1": 4,
            "TEXCOORD_2": 5,
            "TEXCOORD_3": 6,
            "TEXCOORD_4": 7
          },
          "indices": 8,
          "material": 0,
          "mode": 4
        }
      ]
    }
  ],
  "nodes": [
    {
      "children": [
        1
      ],
      "matrix": [
        1.0,
        0.0,
        0.0,
        0.0,
        0.0,
        2.220446049250313e-16,
        -1.0,
        0.0,
        0.0,
        1.0,
        2.220446049250313e-16,
        0.0,
        0.0,
        0.0,
        0.0,
        1.0
      ],
      "name": "Sketchfab_model"
    },
    {
      "children": [
        2
      ],
      "name": "Root"
    },
    {
      "children": [
        3
      ],
      "matrix": [
        1.0,
        0.0,
        0.0,
        0.0,
        0.0,
        1.0,
        0.0,
        0.0,
        0.0,
        0.0,
        1.0,
        0.0,
        -0.0,
        0.6636800000000002,
        0.0,
        1.0
      ],
      "name": "Plane.007"
    },
    {
      "mesh": 0,
      "name": "Plane.007_0"
    }
  ],
  "samplers": [
    {
      "magFilter": 9729,
      "minFilter": 9987,
      "wrapS": 10497,
      "wrapT": 10497
    }
  ],
  "scene": 0,
  "scenes": [
    {
      "name": "Sketchfab_Scene",
      "nodes": [
        0
      ]
    }
  ],
  "textures": [
    {
      "sampler": 0,
      "source": 0
    },
    {
      "sampler": 0,
      "source": 1
    },
    {
      "sampler": 0,
      "source": 2
    },
    {
      "sampler": 0,
      "source": 3
    },
    {
      "sampler": 0,
      "source": 4
    }
  ]
}
