{
  "accessors": [
    {
      "bufferView": 2,
      "componentType": 5126,
      "count": 890,
      "max": [
        223.18487548828125,
        382.5904846191406,
        59.39070129394531
      ],
      "min": [
        -261.40362548828125,
        -452.3048095703125,
        -24.38066291809082
      ],
      "type": "VEC3"
    },
    {
      "bufferView": 2,
      "byteOffset": 10680,
      "componentType": 5126,
      "count": 890,
      "max": [
        0.9986649751663208,
        0.9980716705322266,
        0.9998908042907715
      ],
      "min": [
        -0.8830810785293579,
        -0.9429806470870972,
        -0.9998908042907715
      ],
      "type": "VEC3"
    },
    {
      "bufferView": 1,
      "componentType": 5126,
      "count": 890,
      "max": [
        0.7898523211479187,
        0.9357556104660034
      ],
      "min": [
        0.023483065888285637,
        0.001992051489651203
      ],
      "type": "VEC2"
    },
    {
      "bufferView": 0,
      "componentType": 5125,
      "count": 3828,
      "type": "SCALAR"
    },
    {
      "bufferView": 2,
      "byteOffset": 21360,
      "componentType": 5126,
      "count": 4307,
      "max": [
        227.38357543945313,
        386.17059326171875,
        75.3638687133789
      ],
      "min": [
        -264.69146728515625,
        -473.3914794921875,
        -40.35382843017578
      ],
      "type": "VEC3"
    },
    {
      "bufferView": 2,
      "byteOffset": 73044,
      "componentType": 5126,
      "count": 4307,
      "max": [
        0.9991359114646912,
        0.9999995827674866,
        1.0
      ],
      "min": [
        -0.9928787350654602,
        -0.9999892115592957,
        -1.0
      ],
      "type": "VEC3"
    },
    {
      "bufferView": 1,
      "byteOffset": 7120,
      "componentType": 5126,
      "count": 4307,
      "max": [
        0.6929619312286377,
        0.9978163242340088
      ],
      "min": [
        0.0019086882239207625,
        0.0019920512568205595
      ],
      "type": "VEC2"
    },
    {
      "bufferView": 0,
      "byteOffset": 15312,
      "componentType": 5125,
      "count": 20604,
      "type": "SCALAR"
    }
  ],
  "asset": {
    "extras": {
      "author": "JPScott1 (https://sketchfab.com/JPScott1)",
      "license": "CC-BY-4.0 (http://creativecommons.org/licenses/by/4.0/)",
      "source": "https://sketchfab.com/3d-models/lightning-bolt-d25e29d520a24f8cad9bc58417d70379",
      "title": "Lightning Bolt"
    },
    "generator": "Sketchfab-13.74.0",
    "version": "2.0"
  },
  "bufferViews": [
    {
      "buffer": 0,
      "byteLength": 97728,
      "name": "floatBufferViews",
      "target": 34963
    },
    {
      "buffer": 0,
      "byteLength": 41576,
      "byteOffset": 97728,
      "byteStride": 8,
      "name": "floatBufferViews",
      "target": 34962
    },
    {
      "buffer": 0,
      "byteLength": 124728,
      "byteOffset": 139304,
      "byteStride": 12,
      "name": "floatBufferViews",
      "target": 34962
    }
  ],
  "buffers": [
    {
      "byteLength": 264032,
      "uri": "scene.bin"
    }
  ],
  "extensionsUsed": [
    "KHR_materials_unlit"
  ],
  "materials": [
    {
      "doubleSided": true,
      "emissiveFactor": [
        0.0,
        1.0,
        1.0
      ],
      "name": "phong1",
      "pbrMetallicRoughness": {
        "baseColorFactor": [
          0.0,
          0.5711248295,
          0.4735314961,
          1.0
        ],
        "metallicFactor": 0.0,
        "roughnessFactor": 0.8942628737
      }
    },
    {
      "doubleSided": true,
      "extensions": {
        "KHR_materials_unlit": {}
      },
      "name": "Material_0",
      "pbrMetallicRoughness": {
        "baseColorFactor": [
          0.964706,
          0.737255,
          0.0,
          1.0
        ],
        "roughnessFactor": 0.2849532494
      }
    }
  ],
  "meshes": [
    {
      "name": "pPlane1_phong1_0",
      "primitives": [
        {
          "attributes": {
            "NORMAL": 1,
            "POSITION": 0,
            "TEXCOORD_0": 2
          },
          "indices": 3,
          "material": 0,
          "mode": 4
        }
      ]
    },
    {
      "name": "pPlane1_Material_0_0",
      "primitives": [
        {
          "attributes": {
            "NORMAL": 5,
            "POSITION": 4,
            "TEXCOORD_0": 6
          },
          "indices": 7,
          "material": 1,
          "mode": 4
        }
      ]
    }
  ],
  "nodes": [
    {
      "children": [
        1
      ],
      "matrix": [
        1.0,
        0.0,
        0.0,
        0.0,
        0.0,
        2.220446049250313e-16,
        -1.0,
        0.0,
        0.0,
        1.0,
        2.220446049250313e-16,
        0.0,
        0.0,
        0.0,
        0.0,
        1.0
      ],
      "name": "Sketchfab_model"
    },
    {
      "children": [
        2
      ],
      "matrix": [
        0.009999999776482582,
        0.0,
        0.0,
        0.0,
        0.0,
        0.0,
        0.009999999776482582,
        0.0,
        0.0,
        -0.009999999776482582,
        0.0,
        0.0,
        0.0,
        0.0,
        0.0,
        1.0
      ],
      "name": "e00f06bf956849548868341ebc7263fc.fbx"
    },
    {
      "children": [
        3
      ],
      "name": "RootNode"
    },
    {
      "children": [
        4,
        5
      ],
      "name": "pPlane1"
    },
    {
      "mesh": 0,
      "name": "pPlane1_phong1_0"
    },
    {
      "mesh": 1,
      "name": "pPlane1_Material_0_0"
    }
  ],
  "scene": 0,
  "scenes": [
    {
      "name": "Sketchfab_Scene",
      "nodes": [
        0
      ]
    }
  ]
}
